<svg xmlns="http://www.w3.org/2000/svg" viewBox="0 0 364.98 143.51"><defs><style>.cls-1,.cls-6{font-size:59.54px;letter-spacing:0.2em;}.cls-1,.cls-7{fill:#f0f;}.cls-1,.cls-6,.cls-7{font-family:NicoKaku, NicoKaku;}.cls-2{letter-spacing:0.2em;}.cls-3{fill:#bf40ff;}.cls-4{fill:#8080ff;}.cls-5{fill:#40bfff;}.cls-6{fill:aqua;}.cls-7{font-size:24.1px;}</style></defs><title>Asset 9</title><g id="Layer_2" data-name="Layer 2"><g id="Layer_1-2" data-name="Layer 1"><text class="cls-1" transform="translate(35.04 51.16)">chill<tspan class="cls-2"><tspan x="0" y="58.34">bankje</tspan></tspan></text><path class="cls-3" d="M55.07,55.9q-5.12-.18-7.73-2.41a13.34,13.34,0,0,1-3.78-5.06A14.82,14.82,0,0,1,42.4,42.7a15.64,15.64,0,0,1,1.13-5.84,13,13,0,0,1,3.78-5.06A10.29,10.29,0,0,1,54,29.5H79.37v7.79H53.79a2.54,2.54,0,0,0-1.92.91,5.64,5.64,0,0,0-1.19,2.09,7.8,7.8,0,0,0-.38,2.35,8,8,0,0,0,.38,2.42,5.64,5.64,0,0,0,1.19,2.09,2.75,2.75,0,0,0,1.92,1H79.37V55.9Z"/><path class="cls-3" d="M106.05,21.42V29.5h18a10.33,10.33,0,0,1,6.72,2.3,12.9,12.9,0,0,1,3.75,5,15.7,15.7,0,0,1,1.16,5.87h.06V56.07h-7.85V42.64a6.92,6.92,0,0,0-.44-2.32,6.08,6.08,0,0,0-1.25-2.12,2.51,2.51,0,0,0-1.92-.91H106.05v18.9H98.2V21.42Z"/><path class="cls-3" d="M162.78,29.45V56.07h-7.85V29.45Zm-8.72-8.09a3.54,3.54,0,0,1,1.4-2.79,5.48,5.48,0,0,1,6.74,0,3.56,3.56,0,0,1,0,5.64,5.44,5.44,0,0,1-6.74,0A3.57,3.57,0,0,1,154.06,21.36Z"/><rect class="cls-3" x="181.96" y="21.42" width="7.85" height="34.53"/><rect class="cls-3" x="208.98" y="21.42" width="7.85" height="34.53"/><path class="cls-3" d="M51.12,79.77v25.17a1.36,1.36,0,0,0,1.51,1.51H73a2.66,2.66,0,0,0,1.92-1,5.56,5.56,0,0,0,1.19-2.09,8,8,0,0,0,.38-2.41,7.86,7.86,0,0,0-.38-2.36,5.64,5.64,0,0,0-1.19-2.09,2.52,2.52,0,0,0-1.92-.9H54.84V87.85H72.75a10.23,10.23,0,0,1,6.71,2.3,13,13,0,0,1,3.78,5,15.46,15.46,0,0,1,1.13,5.85,14.77,14.77,0,0,1-1.16,5.72,13.23,13.23,0,0,1-3.78,5.06c-1.74,1.49-4.32,2.3-7.73,2.41H47.28a4,4,0,0,1-2.79-1.07,3.75,3.75,0,0,1-1.22-2.71V79.77Z"/><path class="cls-3" d="M135.35,114.42V97.15a1.37,1.37,0,0,0-1.51-1.51H113.49a2.71,2.71,0,0,0-1.92,1,5.64,5.64,0,0,0-1.19,2.09,8,8,0,0,0-.38,2.41,7.81,7.81,0,0,0,.38,2.36,5.64,5.64,0,0,0,1.19,2.09,2.5,2.5,0,0,0,1.92.9h18.14v7.79H113.72A10.22,10.22,0,0,1,107,112a12.84,12.84,0,0,1-3.78-5.06,15.45,15.45,0,0,1-1.14-5.84,14.83,14.83,0,0,1,1.17-5.73A13.23,13.23,0,0,1,107,90.26c1.74-1.49,4.32-2.3,7.73-2.41h24.42A4,4,0,0,1,142,88.92a3.75,3.75,0,0,1,1.22,2.71v22.79Z"/><path class="cls-3" d="M180.51,87a25.89,25.89,0,0,1,6,.69,25.18,25.18,0,0,1,5.61,2.07,16.37,16.37,0,0,1,4.74,3.63,8.51,8.51,0,0,1,2.24,5.41v15.64h-7.85V100.58a4.38,4.38,0,0,0-1.36-3,9.87,9.87,0,0,0-2.8-1.89,14.91,14.91,0,0,0-3.19-1,16.16,16.16,0,0,0-6.69,0,15.18,15.18,0,0,0-3.2,1,10,10,0,0,0-2.79,1.89,4.34,4.34,0,0,0-1.36,3v13.84H162V98.78a8.53,8.53,0,0,1,2.21-5.41,16.07,16.07,0,0,1,4.7-3.63,25.55,25.55,0,0,1,5.61-2.07A26,26,0,0,1,180.51,87Z"/><path class="cls-3" d="M229.46,95.23c1.11-1.82,3.27-3.16,6.45-4l19.19-5v8l-17.8,4.59a2.32,2.32,0,0,0,0,4.42l17.8,4.65V116l-19.19-5.23c-3.22-.9-5.38-2.25-6.48-4.07a10.64,10.64,0,0,1,0-11.46Zm-3.55-15.46V114.3h-7.85V79.77Z"/><path class="cls-3" d="M272.64,79.71a3.51,3.51,0,0,1,1.4-2.79,5.48,5.48,0,0,1,6.74,0,3.51,3.51,0,0,1,1.4,2.79,3.6,3.6,0,0,1-1.4,2.85,5.48,5.48,0,0,1-6.74,0A3.6,3.6,0,0,1,272.64,79.71Zm8.72,8.08v23.37a29,29,0,0,1-1.28,8.78,14.24,14.24,0,0,1-3.8,6.19,10.26,10.26,0,0,1-6.72,2.77h-5.23v-7.8h3.25a5.17,5.17,0,0,0,3.67-1.68,7.37,7.37,0,0,0,1.86-3.66,29.53,29.53,0,0,0,.4-5.41V87.79Z"/><path class="cls-3" d="M336.53,103.6H311.7V98.31h24.83Zm-24.07,10.64c-3.42-.11-6-.92-7.74-2.41a13.44,13.44,0,0,1-3.78-5.06,15,15,0,0,1-1.16-5.72,15.47,15.47,0,0,1,1.14-5.85,12.88,12.88,0,0,1,3.77-5,10.27,10.27,0,0,1,6.72-2.3h25.12v7.38H311.76a3.22,3.22,0,0,0-2.24.87,5.15,5.15,0,0,0-1.4,2.27,9.13,9.13,0,0,0-.43,2.73,9.51,9.51,0,0,0,.43,2.85,4.89,4.89,0,0,0,1.4,2.24,3.55,3.55,0,0,0,2.24.9h24.77v7.15Z"/><path class="cls-4" d="M59.64,60.75c-3.41-.11-6-.92-7.74-2.41a13.44,13.44,0,0,1-3.78-5.06A15,15,0,0,1,47,47.55a15.45,15.45,0,0,1,1.14-5.84,13,13,0,0,1,3.77-5.06,10.32,10.32,0,0,1,6.72-2.29H83.94v7.79H58.36a2.5,2.5,0,0,0-1.92.9,5.64,5.64,0,0,0-1.19,2.09,7.56,7.56,0,0,0-.38,2.36,7.68,7.68,0,0,0,.38,2.41A5.64,5.64,0,0,0,56.44,52a2.71,2.71,0,0,0,1.92,1H83.94v7.79Z"/><path class="cls-4" d="M110.61,26.28v8.08h18a10.27,10.27,0,0,1,6.71,2.29,12.85,12.85,0,0,1,3.75,5,15.56,15.56,0,0,1,1.17,5.87h0V60.93h-7.85V47.5a6.91,6.91,0,0,0-.43-2.33,6.33,6.33,0,0,0-1.25-2.12,2.53,2.53,0,0,0-1.92-.9H110.61V61h-7.84V26.28Z"/><path class="cls-4" d="M167.35,34.3V60.93H159.5V34.3Zm-8.72-8.08A3.5,3.5,0,0,1,160,23.43a5.45,5.45,0,0,1,6.75,0,3.53,3.53,0,0,1,1.39,2.79,3.62,3.62,0,0,1-1.39,2.85,5.49,5.49,0,0,1-6.75,0A3.59,3.59,0,0,1,158.63,26.22Z"/><rect class="cls-4" x="186.52" y="26.28" width="7.85" height="34.53"/><rect class="cls-4" x="213.54" y="26.28" width="7.85" height="34.53"/><path class="cls-4" d="M55.68,84.62v25.17a1.38,1.38,0,0,0,1.51,1.52H77.54a2.71,2.71,0,0,0,1.92-1,5.6,5.6,0,0,0,1.19-2.1,7.68,7.68,0,0,0,.38-2.41,7.5,7.5,0,0,0-.38-2.35,5.6,5.6,0,0,0-1.19-2.1,2.5,2.5,0,0,0-1.92-.9H59.4V92.7H77.31A10.33,10.33,0,0,1,84,95a13,13,0,0,1,3.78,5.06,15.6,15.6,0,0,1,1.13,5.84,15,15,0,0,1-1.16,5.73A13.41,13.41,0,0,1,84,116.68c-1.75,1.5-4.33,2.3-7.74,2.42H51.85A3.94,3.94,0,0,1,49.06,118a3.72,3.72,0,0,1-1.23-2.7V84.62Z"/><path class="cls-4" d="M139.92,119.27V102a1.38,1.38,0,0,0-1.52-1.51H118.06a2.71,2.71,0,0,0-1.92,1,5.66,5.66,0,0,0-1.2,2.09,8,8,0,0,0-.37,2.42,7.78,7.78,0,0,0,.37,2.35,5.58,5.58,0,0,0,1.2,2.09,2.48,2.48,0,0,0,1.92.91h18.13v7.79h-17.9a10.31,10.31,0,0,1-6.72-2.3,13,13,0,0,1-3.78-5.06,15.6,15.6,0,0,1-1.13-5.84,15,15,0,0,1,1.16-5.73,13.52,13.52,0,0,1,3.78-5.06c1.75-1.49,4.32-2.29,7.73-2.41h24.42a3.94,3.94,0,0,1,2.79,1.08,3.66,3.66,0,0,1,1.22,2.7v22.79Z"/><path class="cls-4" d="M185.08,91.83a25.49,25.49,0,0,1,6,.7,24.84,24.84,0,0,1,5.61,2.06,16.65,16.65,0,0,1,4.74,3.63,8.58,8.58,0,0,1,2.24,5.41v15.64h-7.85V105.43a4.39,4.39,0,0,0-1.37-3,10.11,10.11,0,0,0-2.79-1.89,15.57,15.57,0,0,0-3.2-1,16.11,16.11,0,0,0-6.68,0,15.38,15.38,0,0,0-3.2,1,10.11,10.11,0,0,0-2.79,1.89,4.35,4.35,0,0,0-1.37,3v13.84h-7.79V103.63a8.6,8.6,0,0,1,2.21-5.41,16.25,16.25,0,0,1,4.71-3.63,24.66,24.66,0,0,1,5.61-2.06A25.42,25.42,0,0,1,185.08,91.83Z"/><path class="cls-4" d="M234,100.08c1.12-1.82,3.28-3.15,6.45-4l19.19-5v8l-17.79,4.59a2.31,2.31,0,0,0,0,4.42l17.79,4.65v8.14l-19.19-5.23q-4.82-1.33-6.48-4.07a10.64,10.64,0,0,1,0-11.46Zm-3.55-15.46v34.53h-7.84V84.62Z"/><path class="cls-4" d="M277.21,84.56a3.53,3.53,0,0,1,1.39-2.79,5.49,5.49,0,0,1,6.75,0,3.56,3.56,0,0,1,0,5.64,5.49,5.49,0,0,1-6.75,0A3.56,3.56,0,0,1,277.21,84.56Zm8.72,8.08V116a29.2,29.2,0,0,1-1.28,8.77,14.45,14.45,0,0,1-3.81,6.2,10.25,10.25,0,0,1-6.71,2.76h-5.24V126h3.26a5.17,5.17,0,0,0,3.66-1.69,7.37,7.37,0,0,0,1.86-3.66,29.41,29.41,0,0,0,.41-5.41V92.64Z"/><path class="cls-4" d="M341.09,108.46H316.26v-5.29h24.83ZM317,119.1c-3.41-.12-6-.92-7.73-2.42a13.2,13.2,0,0,1-3.78-5.05,14.82,14.82,0,0,1-1.16-5.73,15.41,15.41,0,0,1,1.13-5.84A12.94,12.94,0,0,1,309.26,95,10.28,10.28,0,0,1,316,92.7h25.12v7.38H316.32a3.25,3.25,0,0,0-2.24.88,5,5,0,0,0-1.39,2.26,9.22,9.22,0,0,0-.44,2.74,9.53,9.53,0,0,0,.44,2.85,4.76,4.76,0,0,0,1.39,2.23,3.53,3.53,0,0,0,2.24.91h24.77v7.15Z"/><path class="cls-5" d="M64.2,65.6c-3.41-.11-6-.92-7.73-2.41a13.23,13.23,0,0,1-3.78-5.06,14.77,14.77,0,0,1-1.16-5.72,15.65,15.65,0,0,1,1.13-5.85,13,13,0,0,1,3.78-5.05,10.24,10.24,0,0,1,6.72-2.3H88.5V47H62.92a2.53,2.53,0,0,0-1.92.9A5.64,5.64,0,0,0,59.81,50a7.86,7.86,0,0,0-.38,2.36,8,8,0,0,0,.38,2.41A5.56,5.56,0,0,0,61,56.85a2.67,2.67,0,0,0,1.92,1H88.5V65.6Z"/><path class="cls-5" d="M115.18,31.13v8.08h18a10.27,10.27,0,0,1,6.72,2.3,13,13,0,0,1,3.75,5,15.76,15.76,0,0,1,1.16,5.88h.06V65.78H137V52.35A7,7,0,0,0,136.6,50a6.17,6.17,0,0,0-1.25-2.12,2.5,2.5,0,0,0-1.92-.9H115.18V65.9h-7.85V31.13Z"/><path class="cls-5" d="M171.91,39.15V65.78h-7.85V39.15Zm-8.72-8.08a3.51,3.51,0,0,1,1.4-2.79,5.48,5.48,0,0,1,6.74,0,3.5,3.5,0,0,1,1.39,2.79,3.59,3.59,0,0,1-1.39,2.85,5.48,5.48,0,0,1-6.74,0A3.6,3.6,0,0,1,163.19,31.07Z"/><rect class="cls-5" x="191.09" y="31.13" width="7.85" height="34.53"/><rect class="cls-5" x="218.11" y="31.13" width="7.85" height="34.53"/><path class="cls-5" d="M60.25,89.47v25.18a1.37,1.37,0,0,0,1.51,1.51H82.11a2.75,2.75,0,0,0,1.92-1,5.64,5.64,0,0,0,1.19-2.09,8,8,0,0,0,.38-2.42,7.8,7.8,0,0,0-.38-2.35A5.56,5.56,0,0,0,84,106.25a2.54,2.54,0,0,0-1.92-.91H64V97.55H81.88a10.28,10.28,0,0,1,6.71,2.3,13,13,0,0,1,3.78,5.06,15.44,15.44,0,0,1,1.13,5.84,14.82,14.82,0,0,1-1.16,5.73,13.31,13.31,0,0,1-3.78,5.06q-2.61,2.23-7.73,2.41H56.41a3.94,3.94,0,0,1-2.79-1.08,3.68,3.68,0,0,1-1.22-2.7V89.47Z"/><path class="cls-5" d="M144.48,124.12V106.86a1.37,1.37,0,0,0-1.51-1.52H122.62a2.71,2.71,0,0,0-1.92,1,5.68,5.68,0,0,0-1.19,2.1,8,8,0,0,0-.38,2.41,7.8,7.8,0,0,0,.38,2.35,5.6,5.6,0,0,0,1.19,2.1,2.5,2.5,0,0,0,1.92.9h18.14V124H122.85a10.23,10.23,0,0,1-6.71-2.3,12.84,12.84,0,0,1-3.78-5.06,15.42,15.42,0,0,1-1.14-5.84,14.87,14.87,0,0,1,1.17-5.73,13.28,13.28,0,0,1,3.78-5c1.74-1.5,4.32-2.3,7.73-2.42h24.42a4,4,0,0,1,2.79,1.08,3.75,3.75,0,0,1,1.22,2.7v22.79Z"/><path class="cls-5" d="M189.64,96.68a25.36,25.36,0,0,1,6,.7,24.66,24.66,0,0,1,5.61,2.06,16.41,16.41,0,0,1,4.74,3.64,8.48,8.48,0,0,1,2.24,5.4v15.64h-7.85V110.29a4.4,4.4,0,0,0-1.36-3,10.31,10.31,0,0,0-2.8-1.89,15.46,15.46,0,0,0-3.19-1,16.09,16.09,0,0,0-9.89,1,10.41,10.41,0,0,0-2.79,1.89,4.36,4.36,0,0,0-1.36,3v13.83h-7.79V108.48a8.55,8.55,0,0,1,2.2-5.4,16.28,16.28,0,0,1,4.71-3.64,25,25,0,0,1,5.61-2.06A25.49,25.49,0,0,1,189.64,96.68Z"/><path class="cls-5" d="M238.59,104.94c1.11-1.83,3.27-3.16,6.45-4l19.19-5v8l-17.8,4.59a2.32,2.32,0,0,0,0,4.42l17.8,4.65v8.14L245,120.46q-4.83-1.33-6.48-4.07a10.62,10.62,0,0,1,0-11.45ZM235,89.47V124h-7.85V89.47Z"/><path class="cls-5" d="M281.77,89.41a3.54,3.54,0,0,1,1.4-2.79,5.48,5.48,0,0,1,6.74,0,3.54,3.54,0,0,1,0,5.64,5.44,5.44,0,0,1-6.74,0A3.57,3.57,0,0,1,281.77,89.41Zm8.72,8.09v23.37a29,29,0,0,1-1.28,8.78,14.36,14.36,0,0,1-3.8,6.19,10.25,10.25,0,0,1-6.72,2.76h-5.23v-7.79h3.25a5.18,5.18,0,0,0,3.67-1.69,7.37,7.37,0,0,0,1.86-3.66,29.45,29.45,0,0,0,.4-5.41V97.5Z"/><path class="cls-5" d="M345.66,113.31H320.83V108h24.83ZM321.58,124c-3.41-.12-6-.92-7.73-2.41a13.52,13.52,0,0,1-3.78-5.06,15,15,0,0,1-1.16-5.73,15.64,15.64,0,0,1,1.13-5.84,13,13,0,0,1,3.78-5.06,10.31,10.31,0,0,1,6.72-2.3h25.12v7.39H320.89a3.22,3.22,0,0,0-2.24.87,5,5,0,0,0-1.4,2.27,9.13,9.13,0,0,0-.43,2.73,9.51,9.51,0,0,0,.43,2.85,4.86,4.86,0,0,0,1.4,2.24,3.55,3.55,0,0,0,2.24.9h24.77V124Z"/><text class="cls-6" transform="translate(53.3 70.57)">chill<tspan class="cls-2"><tspan x="0" y="58.34">bankje</tspan></tspan></text><text class="cls-7" transform="translate(0.46 29.91) scale(1.09 1)">T<tspan x="0.69" y="25.48">E</tspan><tspan x="0.61" y="50.96">A</tspan><tspan x="-0.42" y="76.44">M</tspan></text></g></g></svg>